<?xml version="1.0" encoding="utf-8"?>
<!-- Generator: Adobe Illustrator 24.1.0, SVG Export Plug-In . SVG Version: 6.00 Build 0)  -->
<svg version="1.1" id="Layer_1" xmlns="http://www.w3.org/2000/svg" xmlns:xlink="http://www.w3.org/1999/xlink" x="0px" y="0px"
	 width="247.6px" height="40px" viewBox="0 0 247.6 40" style="enable-background:new 0 0 247.6 40;" xml:space="preserve">
<style type="text/css">
	.st0{fill:#EF454A;}
	.st1{fill:#001246;}
	.st2{fill:#0072C9;}
</style>
<polygon class="st0" points="23.2,20.2 12,3.6 33.9,3.6 "/>
<polygon class="st1" points="33.9,36.2 12.8,36.2 1.2,20.8 12,3.6 "/>
<path class="st1" d="M41.8,27.4c0.2,1.5,0.8,2.7,1.8,3.5c1,0.8,2.2,1.3,3.6,1.3c1.3,0,2.3-0.3,3.2-0.8c0.9-0.5,1.6-1.2,2.2-1.9
	l3.6,2.7c-1.2,1.5-2.5,2.5-3.9,3.1c-1.5,0.6-3,0.9-4.6,0.9c-1.5,0-2.9-0.3-4.3-0.8s-2.5-1.2-3.5-2.1c-1-0.9-1.8-2-2.3-3.3
	c-0.6-1.3-0.9-2.7-0.9-4.3c0-1.6,0.3-3,0.9-4.3c0.6-1.3,1.3-2.4,2.3-3.3c1-0.9,2.1-1.6,3.5-2.1s2.8-0.8,4.3-0.8
	c1.4,0,2.7,0.2,3.8,0.7c1.2,0.5,2.1,1.2,3,2.1c0.8,0.9,1.5,2.1,1.9,3.4c0.5,1.4,0.7,2.9,0.7,4.7v1.4H41.8z M52.1,23.7
	c0-1.5-0.5-2.6-1.4-3.5c-0.9-0.9-2.1-1.3-3.7-1.3c-1.5,0-2.7,0.4-3.6,1.3c-0.9,0.9-1.4,2-1.6,3.5H52.1z"/>
<path class="st0" d="M59.8,4.1h5v31.7h-5V4.1z"/>
<path class="st0" d="M81,33h-0.1c-0.7,1.1-1.6,2-2.8,2.5c-1.1,0.5-2.3,0.8-3.7,0.8c-0.9,0-1.8-0.1-2.7-0.4c-0.9-0.3-1.7-0.6-2.3-1.1
	c-0.7-0.5-1.2-1.1-1.7-1.9c-0.4-0.8-0.6-1.6-0.6-2.6c0-1.1,0.2-2,0.6-2.8c0.4-0.8,0.9-1.4,1.6-1.9c0.7-0.5,1.4-0.9,2.3-1.2
	c0.9-0.3,1.8-0.5,2.7-0.7c0.9-0.2,1.9-0.3,2.8-0.3c0.9,0,1.8-0.1,2.7-0.1H81v-0.5c0-1.3-0.4-2.2-1.3-2.8c-0.9-0.6-2-0.9-3.3-0.9
	c-1.1,0-2.1,0.2-3,0.6s-1.7,0.9-2.4,1.5l-2.6-2.6c1.1-1.1,2.4-2,3.9-2.5c1.5-0.5,3-0.8,4.6-0.8c1.4,0,2.6,0.2,3.6,0.5
	c1,0.3,1.8,0.7,2.4,1.2c0.6,0.5,1.1,1.1,1.5,1.7c0.3,0.7,0.6,1.3,0.8,2c0.2,0.7,0.2,1.3,0.3,1.9c0,0.6,0,1.2,0,1.7v11.6H81V33z
	 M80.7,26.7h-1c-0.7,0-1.5,0-2.3,0.1c-0.9,0.1-1.7,0.2-2.4,0.4c-0.8,0.2-1.4,0.5-1.9,0.9c-0.5,0.4-0.8,1-0.8,1.7
	c0,0.5,0.1,0.9,0.3,1.2c0.2,0.3,0.5,0.6,0.8,0.8c0.3,0.2,0.7,0.4,1.1,0.5c0.4,0.1,0.8,0.1,1.3,0.1c1.7,0,3-0.4,3.8-1.2
	c0.8-0.8,1.2-1.9,1.2-3.4V26.7z"/>
<path class="st0" d="M86.5,19.9v-4.3h4.1V9.8h5v5.8h5.5v4.3h-5.5v8.8c0,1,0.2,1.8,0.6,2.4c0.4,0.6,1.1,0.9,2.2,0.9
	c0.4,0,0.9,0,1.5-0.1c0.5-0.1,0.9-0.3,1.3-0.5v4.2c-0.5,0.3-1.2,0.4-1.9,0.5c-0.8,0.1-1.4,0.1-2,0.1c-1.3,0-2.4-0.1-3.3-0.4
	c-0.9-0.3-1.5-0.7-2-1.3c-0.5-0.6-0.8-1.3-1-2.2c-0.2-0.9-0.3-1.9-0.3-3.1v-9.2H86.5z"/>
<path class="st0" d="M107.1,27.4c0.2,1.5,0.8,2.7,1.8,3.5c1,0.8,2.2,1.3,3.6,1.3c1.3,0,2.3-0.3,3.2-0.8c0.9-0.5,1.6-1.2,2.2-1.9
	l3.6,2.7c-1.2,1.5-2.5,2.5-3.9,3.1c-1.5,0.6-3,0.9-4.6,0.9c-1.5,0-2.9-0.3-4.3-0.8s-2.5-1.2-3.5-2.1c-1-0.9-1.8-2-2.3-3.3
	c-0.6-1.3-0.9-2.7-0.9-4.3c0-1.6,0.3-3,0.9-4.3c0.6-1.3,1.3-2.4,2.3-3.3c1-0.9,2.1-1.6,3.5-2.1s2.8-0.8,4.3-0.8
	c1.4,0,2.7,0.2,3.8,0.7c1.2,0.5,2.1,1.2,3,2.1c0.8,0.9,1.5,2.1,1.9,3.4c0.5,1.4,0.7,2.9,0.7,4.7v1.4H107.1z M117.4,23.7
	c0-1.5-0.5-2.6-1.4-3.5c-0.9-0.9-2.1-1.3-3.7-1.3c-1.5,0-2.7,0.4-3.6,1.3c-0.9,0.9-1.4,2-1.6,3.5H117.4z"/>
<path class="st0" d="M135.7,21.2c-1-1.4-2.3-2.1-3.9-2.1c-0.7,0-1.3,0.2-2,0.5c-0.6,0.3-1,0.9-1,1.6c0,0.6,0.3,1.1,0.8,1.3
	c0.5,0.3,1.2,0.5,2,0.7c0.8,0.2,1.7,0.4,2.6,0.6c0.9,0.2,1.8,0.5,2.6,1c0.8,0.4,1.5,1,2,1.8c0.5,0.8,0.8,1.8,0.8,3.1
	c0,1.2-0.3,2.2-0.8,3c-0.5,0.8-1.2,1.5-2,2c-0.8,0.5-1.8,0.9-2.8,1.1c-1,0.2-2.1,0.3-3.1,0.3c-1.6,0-3-0.2-4.3-0.7
	c-1.3-0.4-2.5-1.3-3.5-2.4l3.4-3.1c0.6,0.7,1.3,1.3,2.1,1.8c0.7,0.5,1.6,0.7,2.7,0.7c0.4,0,0.7,0,1.1-0.1c0.4-0.1,0.8-0.2,1.1-0.4
	c0.3-0.2,0.6-0.4,0.8-0.7c0.2-0.3,0.3-0.6,0.3-1c0-0.7-0.3-1.2-0.8-1.5c-0.5-0.3-1.2-0.6-2-0.8c-0.8-0.2-1.7-0.4-2.6-0.6
	c-0.9-0.2-1.8-0.5-2.6-0.9c-0.8-0.4-1.5-1-2-1.7c-0.5-0.7-0.8-1.7-0.8-3c0-1.1,0.2-2.1,0.7-2.9c0.5-0.8,1.1-1.5,1.8-2
	c0.8-0.5,1.6-0.9,2.6-1.2c1-0.3,2-0.4,3-0.4c1.3,0,2.7,0.2,4,0.7c1.3,0.5,2.4,1.2,3.2,2.4L135.7,21.2z"/>
<path class="st0" d="M139.2,19.9v-4.3h4.1V9.8h5v5.8h5.5v4.3h-5.5v8.8c0,1,0.2,1.8,0.6,2.4c0.4,0.6,1.1,0.9,2.2,0.9
	c0.4,0,0.9,0,1.5-0.1c0.5-0.1,0.9-0.3,1.3-0.5v4.2c-0.5,0.3-1.2,0.4-1.9,0.5c-0.8,0.1-1.4,0.1-2,0.1c-1.3,0-2.4-0.1-3.3-0.4
	s-1.5-0.7-2-1.3s-0.8-1.3-1-2.2c-0.2-0.9-0.3-1.9-0.3-3.1v-9.2H139.2z"/>
<path class="st1" d="M155.7,15.6h4.8v3.2h0.1c0.5-1,1.2-1.9,2.2-2.6c1-0.7,2.3-1.1,4-1.1c1.3,0,2.5,0.2,3.4,0.7
	c0.9,0.4,1.7,1,2.3,1.8c0.6,0.7,1,1.6,1.3,2.5c0.3,0.9,0.4,1.9,0.4,3v12.7h-5V25.6c0-0.6,0-1.2-0.1-1.9c-0.1-0.7-0.2-1.3-0.4-1.9
	c-0.2-0.6-0.6-1.1-1.1-1.5c-0.5-0.4-1.2-0.6-2.1-0.6c-0.8,0-1.5,0.1-2.1,0.4c-0.6,0.3-1,0.7-1.4,1.1c-0.4,0.5-0.6,1-0.8,1.6
	c-0.2,0.6-0.3,1.3-0.3,1.9v11h-5V15.6z"/>
<path class="st1" d="M181.7,27.4c0.2,1.5,0.8,2.7,1.8,3.5c1,0.8,2.2,1.3,3.6,1.3c1.3,0,2.3-0.3,3.2-0.8c0.9-0.5,1.6-1.2,2.2-1.9
	l3.6,2.7c-1.2,1.5-2.5,2.5-3.9,3.1c-1.5,0.6-3,0.9-4.6,0.9c-1.5,0-2.9-0.3-4.3-0.8s-2.5-1.2-3.5-2.1c-1-0.9-1.8-2-2.3-3.3
	c-0.6-1.3-0.9-2.7-0.9-4.3c0-1.6,0.3-3,0.9-4.3c0.6-1.3,1.3-2.4,2.3-3.3c1-0.9,2.1-1.6,3.5-2.1s2.8-0.8,4.3-0.8
	c1.4,0,2.7,0.2,3.8,0.7c1.2,0.5,2.1,1.2,3,2.1c0.8,0.9,1.5,2.1,1.9,3.4s0.7,2.9,0.7,4.7v1.4H181.7z M192,23.7c0-1.5-0.5-2.6-1.4-3.5
	c-0.9-0.9-2.1-1.3-3.7-1.3c-1.5,0-2.7,0.4-3.6,1.3c-0.9,0.9-1.4,2-1.6,3.5H192z"/>
<path class="st1" d="M196.9,15.6h5.4l4.4,14.1h0.1l4.1-14.1h5.4l4.4,14.1h0.1l4.2-14.1h5.1l-6.8,20.1h-5L213.4,22h-0.1l-4.2,13.7
	h-5.2L196.9,15.6z"/>
<path class="st1" d="M241.6,21.2c-1-1.4-2.3-2.1-3.9-2.1c-0.7,0-1.3,0.2-2,0.5c-0.6,0.3-1,0.9-1,1.6c0,0.6,0.3,1.1,0.8,1.3
	c0.5,0.3,1.2,0.5,2,0.7c0.8,0.2,1.7,0.4,2.6,0.6c0.9,0.2,1.8,0.5,2.6,1c0.8,0.4,1.5,1,2,1.8c0.5,0.8,0.8,1.8,0.8,3.1
	c0,1.2-0.3,2.2-0.8,3c-0.5,0.8-1.2,1.5-2,2c-0.8,0.5-1.8,0.9-2.8,1.1c-1,0.2-2.1,0.3-3.1,0.3c-1.6,0-3-0.2-4.3-0.7
	c-1.3-0.4-2.5-1.3-3.5-2.4l3.4-3.1c0.6,0.7,1.3,1.3,2.1,1.8c0.7,0.5,1.6,0.7,2.7,0.7c0.4,0,0.7,0,1.1-0.1c0.4-0.1,0.8-0.2,1.1-0.4
	c0.3-0.2,0.6-0.4,0.8-0.7c0.2-0.3,0.3-0.6,0.3-1c0-0.7-0.3-1.2-0.8-1.5c-0.5-0.3-1.2-0.6-2-0.8c-0.8-0.2-1.7-0.4-2.6-0.6
	c-0.9-0.2-1.8-0.5-2.6-0.9c-0.8-0.4-1.5-1-2-1.7c-0.5-0.7-0.8-1.7-0.8-3c0-1.1,0.2-2.1,0.7-2.9c0.5-0.8,1.1-1.5,1.8-2
	c0.8-0.5,1.6-0.9,2.6-1.2c1-0.3,2-0.4,3-0.4c1.3,0,2.7,0.2,4,0.7c1.3,0.5,2.4,1.2,3.2,2.4L241.6,21.2z"/>
<polygon class="st2" points="187.9,-58.9 191,-58.9 198.5,-50.9 187.9,-50.9 "/>
<polygon class="st2" points="187.9,-61.7 187.9,-70.3 199.9,-70.3 199.9,-61.7 "/>
<path class="st0" d="M187.9-47.2v-14.9l-8.8-8.2H179v23.1c0,0,0,0-0.1,0l9,7.9h12v-7.9C198.3-47.2,191.3-47.2,187.9-47.2z"/>
</svg>
